<!-- Orazaka mark — rendered from @krizaka/ui 2.0.0 (OrazakaLogo), light theme of @krizaka/tokens 2.0.0. Do not edit: re-render. -->
<svg width="400" height="400" viewBox="0 0 400 400" fill="none" xmlns="http://www.w3.org/2000/svg" role="img" aria-label="Orazaka"><style>
.ozm-orbit { transform-origin: 200px 200px; animation: ozm-orbit 35s linear infinite; }
.ozm-core { transform-box: fill-box; transform-origin: center; animation: ozm-core 3.2s ease-in-out infinite; }
@keyframes ozm-orbit { to { transform: rotate(360deg); } }
@keyframes ozm-core {
  0%, 100% { filter: drop-shadow(0 0 6px hsla(38, 92%, 50%, .3)); opacity: .9; }
  50% { filter: drop-shadow(0 0 14px hsla(38, 92%, 50%, .6)); opacity: 1; }
}
@media (prefers-reduced-motion: reduce) { .ozm-orbit, .ozm-core { animation: none; } }
</style><defs><linearGradient id="ozm-amber-orazaka" gradientUnits="userSpaceOnUse" x1="90" y1="310" x2="310" y2="90"><stop offset="0%" stop-color="#b45309"></stop><stop offset="100%" stop-color="#f59e0b"></stop></linearGradient><radialGradient id="ozm-glow-orazaka" cx="50%" cy="50%" r="50%"><stop offset="0%" stop-color="#f59e0b" stop-opacity="0.16"></stop><stop offset="100%" stop-color="#f59e0b" stop-opacity="0"></stop></radialGradient></defs><circle cx="200" cy="200" r="190" fill="url(#ozm-glow-orazaka)"></circle><circle cx="200" cy="200" r="160" stroke="#000000" stroke-opacity="0.16" stroke-width="1.5" stroke-dasharray="8 8" opacity=".6"></circle><circle cx="200" cy="200" r="134" stroke="#000000" stroke-opacity="0.1" stroke-width="1" opacity=".35"></circle><g class="ozm-orbit"><path d="M154.4,121.2 L200,94.7 L245.6,121.2 L245.6,154.4 L226.6,165.4 L226.6,132.2 L200,116.8 L173.4,132.2 L173.4,165.4 L154.4,154.4 Z" fill="url(#ozm-amber-orazaka)" stroke="url(#ozm-amber-orazaka)" stroke-width="5.7" stroke-linejoin="round"></path><path d="M291.1,199.9 L291.2,252.6 L245.5,278.9 L216.7,262.3 L216.6,240.3 L245.4,257 L272.1,241.6 L272,210.9 L243.2,194.3 L262.3,183.3 Z" fill="url(#ozm-amber-orazaka)" stroke="url(#ozm-amber-orazaka)" stroke-width="5.7" stroke-linejoin="round"></path><path d="M154.5,278.9 L108.8,252.6 L108.9,199.9 L137.7,183.3 L156.8,194.3 L128,210.9 L127.9,241.6 L154.6,257 L183.4,240.3 L183.3,262.3 Z" fill="url(#ozm-amber-orazaka)" stroke="url(#ozm-amber-orazaka)" stroke-width="5.7" stroke-linejoin="round"></path></g><g class="ozm-core"><circle cx="200" cy="200" r="21" fill="url(#ozm-amber-orazaka)"></circle><circle cx="200" cy="200" r="7.6" fill="#fffbeb"></circle></g></svg>
